/* XPM */
static const char *const icon_xpm[] = {
"31 29 3 1 ",
"  c black",
". c yellow",
"X c None",

"XXXXXXXXXXXXXXXXXXXXXXXXXXXXXXX",
"XXXXXXXXXXXXXXXXXXXXXXXXXXXXXXX",
"XXXXXXXXXXXXXXXXXXXXXXXXXXXXXXX",
"XXXXXXXXXXXXXXXXXXXXXXXXXXXXXXX",
"XXXXXXXXXXXXXXXXXXXXXXXXXXXXXXX",
"XXXXXXXXXXXXXXXXXXXXXXXXXXXXXXX",
"XXXXXXXXXXXXXXXXXXXXXXXXXXXXXXX",
"XXXXXXXXXXXXXXXXXXXXXXXXXXXXXXX",
"             XXXXXXXXXXXXXXXXXX",
" ........... XXXXXXXXXXXXXXXXXX",
" ........... XXXXXXXXXXXXXXXXXX",
" ...     ... XXXXXXXXXXXXXXXXXX",
" ... XXX ...                   ",
" ... XXX ... ................. ",
" ... XXX ... ................. ",
" ... XXX ...         ...   ... ",
" ...     ... XXXXXXX ... X ... ",
" ........... XXXXXXX ... X ... ",
" ........... XXXXXXX     X ... ",
"             XXXXXXXXXXXXX     ",
"XXXXXXXXXXXXXXXXXXXXXXXXXXXXXXX",
"XXXXXXXXXXXXXXXXXXXXXXXXXXXXXXX",
"XXXXXXXXXXXXXXXXXXXXXXXXXXXXXXX",
"XXXXXXXXXXXXXXXXXXXXXXXXXXXXXXX",
"XXXXXXXXXXXXXXXXXXXXXXXXXXXXXXX",
"XXXXXXXXXXXXXXXXXXXXXXXXXXXXXXX",
"XXXXXXXXXXXXXXXXXXXXXXXXXXXXXXX",
"XXXXXXXXXXXXXXXXXXXXXXXXXXXXXXX",
"XXXXXXXXXXXXXXXXXXXXXXXXXXXXXXX"
};
